<svg xmlns="http://www.w3.org/2000/svg" width="60" height="60" viewBox="0 0 60 60"><defs><linearGradient id="a" x1="50%" x2="50%" y1="100%" y2="0%"><stop offset="0%" stop-color="#FF498C"/><stop offset="100%" stop-color="#FF8B8B"/></linearGradient></defs><g fill="none" fill-rule="evenodd"><path fill="url(#a)" d="M30 0c23.4 0 30 6.6 30 30s-6.6 30-30 30S0 53.4 0 30 6.6 0 30 0z"/><path fill="#FFF" d="M30.552 46.199c-4.626.053-8.814-1.86-11.846-4.867-3.031-3.006-4.906-7.16-4.906-11.749 0-5.093 2.563-11.085 8.137-14.175s7.107-1.23 10.143 1.41c2.562 2.227 1.13-3.856 4.387-2.778 2.07.684 3.88 2.058 3.964 2.107a16.73 16.73 0 0 1 5.422 6.663l.102.309c1.396 4.233-3.374 4.097-9.038 4.097h-3.146c-.301 0-.727 0-1.268.136-.169.043-.388.926 1.518 1.473 1.905.547 2.356.062 2.356.761 0 1.398-1.87 2.135-4.094 1.905-2.223-.23-4.364-2.12-4.364-2.12-.885.634-1.582 1.758-1.556 3.76.051 3.928 3.074 5.944 6.245 6.3 3.928.443 7.382-2.539 6.263-4.615-.409-.757-1.738-1.383-2.723-.321-.561.604-.815.974-1.208.883-.487-.112-1.02-.676.25-2.349 1.477-1.942 5.52-2.193 7.456.511 2.289 3.196-.46 12.525-12.094 12.659zm7.273-24.923c.74 0 1.34-.596 1.34-1.33 0-.734-.6-1.329-1.34-1.329-.74 0-1.34.595-1.34 1.33 0 .733.6 1.329 1.34 1.329z"/></g></svg>